<svg width="765" height="1024" viewBox="0 0 765 1024" fill="none" xmlns="http://www.w3.org/2000/svg">
<rect width="765" height="1024" fill="transparent"/>
<g clip-path="url(#clip0_0_1)">
<path d="M242.219 3C247.529 5.29053 254.506 6.64679 260.219 8C252.837 10.182 244.818 8.3766 237.219 9.2855C224.29 10.8319 212.158 15.0358 200.219 20C204.686 21.3564 210.435 19.0396 215.219 19C209.511 21.8652 203.1 23.2422 197.219 25.8611C180.707 33.2134 161.336 44.4634 150.219 59C154.92 57.0818 159.794 55.4913 164.219 53C158.113 60.8038 147.29 65.9078 139.219 71.5903C125.162 81.4869 112.173 92.7805 101.139 106C96.3257 111.766 90.9357 117.935 88.2187 125C95.8467 120.875 101.932 113.815 109.219 109C105.194 114.781 100.018 119.548 95.5937 125C77.3185 147.519 58.9005 168.719 53.2187 198C56.9351 193.577 58.841 187.807 63.2187 184C56.8262 199.379 53.2757 215.651 46.7551 231C35.9191 256.506 22.4576 278.63 20.2188 307C23.712 302.38 24.1546 296.202 28.2188 292C22.7408 318.469 21.3776 345.399 16.2188 372C19.9809 367.344 23.1317 360.624 25.2188 355C25.7347 362.7 22.7952 371.365 21.4688 379C18.9419 393.544 16.9037 408.256 16.2581 423C15.731 435.037 19.0057 442.64 21.1022 454.5C22.5254 462.552 30.6021 476 33.6022 484.5C15.1021 484.5 11.6022 498 7.10216 504.5C1.60215 523.5 -0.444495 523.62 -0.870278 541C-1.23848 556.03 -0.845716 574.038 0.602157 589C3.30814 616.963 7.582 632.756 14.1022 660C18.3007 677.543 23.6022 703 27.6022 719.5C36.1022 749.5 80.8735 768.234 105.102 746.5C110.726 771.034 115.102 781 125.602 804.5C132.458 816.259 140.852 824.508 148.102 836C156.235 848.893 166.892 869.471 175.602 882C196.458 912 213.115 935.032 238.602 955C282.777 989.612 323.089 1019.5 379.219 1021.96C406.694 1023.16 436.01 1017.96 462.219 1009.96C486.486 1002.55 510.247 989.618 531.219 975.482C562.359 954.492 588.771 926.415 610.491 896C623.886 877.242 634.729 856.796 644.538 836C652.112 819.944 670.474 792.9 674.5 775.5C689.5 791 721.542 786.823 731 765C734.159 757.711 734.471 746.227 735 738.5C735.84 726.243 735.467 717.115 737.5 705C744.263 664.687 753.968 626.395 758 585.5C761.5 550 751.5 533 733 530.5C729.851 528.965 722.5 533.5 718 536C720.197 527.948 724.128 501.951 724.5 493.5C724.962 482.996 723.973 480.626 724.234 470C724.577 455.981 725 458.5 726 444L729.219 428L729.5 436C733.841 426.33 734 411.905 734 401.5C734 367.915 732.367 332.369 718.5 301.5C714.069 291.635 705.577 281.521 699 273C696.267 269.46 692.985 264.315 691.5 260C689.683 254.723 689.953 250.632 690 245C692.796 250.239 699 259.185 699 265C701 259.5 697 249.678 697 243.5C696.999 223.639 686.814 202.956 674.54 187C666.628 176.715 655.98 169.227 648.108 159C642.933 152.278 639.956 144.491 636.111 137C630.605 126.273 624.484 115.617 617.18 106C607.136 92.7742 594.922 82.1591 582.219 71.5864C560.663 53.6454 537.595 37.7627 512.219 25.7029C496.579 18.2701 477.646 10.4236 460.219 9C466.856 13.4647 474.961 16.6274 482.219 20C477.777 20.2579 474.346 18.1545 470.219 16.6991C464.988 14.8547 459.501 13.7373 454.219 12.0008C441.757 7.90363 427.284 5.41815 414.219 4.16974C389.267 1.7854 365.834 9.7034 341.219 9.9962C320.19 10.2462 300.045 6.15973 279.219 4.16974C267.104 3.01202 254.395 3 242.219 3Z" fill="black"/>
<path d="M425.857 40V42.2449C452.216 42.4962 477.724 55.0299 501.868 65.8163C490.777 65.437 479.922 58.3379 468.735 57.0281C440.409 53.7115 414.407 58.5643 386.876 65.8163C392.549 68.3666 400.451 64.4037 406.367 63.6278C419.555 61.8979 433.041 62.0897 446.321 62.4654C491.396 63.7406 543.022 97.5949 555.466 150C557.217 144.823 554.457 139.327 553.114 134.286C549.056 119.043 542.194 107.3 535.002 93.8775C550.373 106.349 561.444 127.853 565.212 148.878C566.899 144.2 565.48 139.102 564.626 134.286C562.143 120.297 556.916 108.707 549.605 97.2449C539.093 80.7642 523.546 68.9995 507.716 60.4509C481.486 46.2869 454.685 40 425.857 40Z" fill="#383838"/>
<path d="M511.105 41.156L504.069 39L510.167 44.3901C521.233 51.8112 532.855 58.569 541.907 69.2809C551.739 80.9158 559.78 94.5433 568.877 106.915C572.351 111.641 575.419 117.023 579.595 120.929C576.87 107.247 567.667 96.1733 561.769 84.2766C583.808 108.514 596.65 135.248 605.865 168.362C607.599 163.477 605.446 158.155 604.337 153.27C601.348 140.096 596.959 128.754 591.792 116.617C602.116 130.571 606.397 149.158 611.186 166.206C613.437 174.224 616.745 182.526 617.124 191H619C618.971 139.995 589.593 95.1732 555.201 66.2373C541.795 54.9583 527.216 46.066 511.105 41.156Z" fill="#383838"/>
<path d="M587 76C601.796 102.832 616.914 129.162 628.772 157.682C633.297 168.563 638.765 179.342 641.101 191C643.535 184.994 640.419 178.643 638.899 172.729C634.754 156.591 629.222 140.992 623.414 125.439C630.304 134.437 635.476 144.606 641.101 154.458C642.273 147.541 635.923 137.898 632.887 131.888C624.983 116.244 614.639 102.464 602.605 89.972C597.812 84.996 593.217 78.9954 587 76Z" fill="#383838"/>
<path d="M284 61C286.599 67.1857 291.634 71.7945 296 76.5208C307.239 88.6881 320.756 100.495 336 105.392C316.921 107.705 298.365 93.5079 283 83.1958C287.584 94.1039 298.666 100.572 308 105.662C318.504 111.391 329.57 113.869 341 115.867C361.236 119.404 380.903 119.269 400 109.831C395.548 107.902 390.638 110.481 386 110.842C377.736 111.484 369.284 110.94 361 110.94C367.066 108.95 373.755 109.127 380 107.594C389.09 105.362 398.32 101.339 407 97.623C401.448 95.1105 392.916 97.9093 387 98.5441C374.065 99.9336 359.89 100.709 347 98.3721C331.309 95.5277 316.841 87.4107 304 77.318C297.443 72.1642 291.179 64.8604 284 61Z" fill="#383838"/>
<path d="M308 61C312.862 65.5984 343.634 83.0885 349.922 84.6186C367.45 88.8838 383.081 88.4736 400.5 84.5C405.21 83.4254 415.631 81.8657 420.175 80C422.109 79.2058 418.797 76.5694 415.5 75L438 69.3093C432 68 425.896 68.546 420.175 69.2517C404.642 71.168 390.191 75.3597 375 78.6863C349.922 78.6863 323.528 63.1601 308 61Z" fill="#383838"/>
<path d="M248 79C259.913 107.192 295.393 124.751 326.86 132.608C335.604 134.792 344.413 137.225 353.551 137.771C374.417 139.015 392.838 134.947 413 131.557C409.09 130.342 405.006 131.454 400.868 131.542C392.43 131.72 383.823 131.836 375.39 131.516C356.555 130.802 336.381 127.301 318.368 122.55C298.551 117.323 280.169 105.419 264.985 93.5373C259.083 88.9185 254.162 83.305 248 79Z" fill="#383838"/>
<path d="M417 107.641C421.689 109.553 427.214 107.205 432 106.241C445.478 103.529 457.087 97.0366 470 92.6409C465.471 90.8739 459.607 93.2054 455 94.2953C441.958 97.3804 429.239 102.189 417 107.641Z" fill="#383838"/>
<path d="M421 137C430.946 135.66 440.694 131.609 450 128C444.619 131.942 439.094 134.997 433 137.691C429.479 139.248 425.357 139.861 423 143C433.747 141.552 446.282 136.989 455 130.485C467.537 121.133 476.439 109.512 492 105C487.715 103.463 482.458 105.434 478 106C492.799 97.7104 507.157 105.362 522 108C510.807 97.5388 486.844 95.2939 473 101.071C461.286 105.959 451.928 115.93 442 123.497C435.895 128.15 425.515 130.955 421 137Z" fill="#383838"/>
<path d="M143 118C146.476 118.401 149.732 116.263 153 115.054C158.203 113.13 163.534 111.581 169 110.615C186.411 107.539 207.596 114.986 221 126C213.633 123.163 204.918 120.185 197 120C201.739 124.182 208.704 125.871 214 129.57C221.567 134.855 228.25 141.445 236 146.452C245.768 152.763 257.534 156.456 269 158C264.827 154.543 259.756 153.546 255 151.168C249.497 148.417 244.6 144.615 239 142C245.413 143.085 251.682 146.863 258 148.795C266.499 151.394 275.174 152 284 152C280.195 148.959 275.522 148.472 271 146.921C264.806 144.797 258.53 141.972 253 138.456C242.184 131.58 233.172 122.17 222 115.876C196.593 101.562 167.082 100.768 143 118Z" fill="#383838"/>
<path d="M383.022 167.392C399.446 162.536 416.398 162.721 432.022 154.392C429.659 152.028 421.59 156.5 418.022 157.392C410.203 159.347 401.77 159.455 394.022 161.392C391.826 161.941 389.218 160.843 387.022 161.392C382.455 162.534 374.165 163.678 369.022 162.392C366.048 161.649 361.996 161.135 359.022 160.392C356.198 159.686 352.846 161.098 350.022 160.392C345.596 159.285 335.945 157.751 331.022 159.392C324.726 161.491 318.303 164.298 312.022 166.392C310.222 166.992 307.5 167.75 305.5 168.083C302.5 168.583 300.041 168.637 297.022 169.392C292.409 170.545 287.661 169.232 283.022 170.392C278.642 171.487 272.538 172.016 268.022 172.392C264.243 172.707 259.686 171.476 256.022 172.392L244.022 175.392C241.036 176.139 237.923 175.425 235.022 176.392C225.146 179.684 214.516 186.021 206.022 192.392C200.498 196.535 197.214 202.498 192.022 206.392C187.39 209.866 182.25 214.164 179.022 217.392C178.415 217.999 176.585 220.433 176 221.083C174.122 223.17 171.987 224.773 170.022 227.392C164.365 234.935 156.946 243.621 154.022 252.392C149.917 264.708 151.204 278.665 148.022 291.392C146.758 296.448 148.222 302.59 147.022 307.392C146.238 310.529 147.806 314.255 147.022 317.392C145.322 324.194 143.538 331.365 140.022 337.392C124.199 364.517 112.653 393.866 105.022 424.392C103.281 431.356 102.718 438.608 101.022 445.392C100.5 449 100.5 449.5 100.5 452V455.5C100 466 96.8872 474.81 96.1108 485.392C95.2827 496.68 93.4301 508.088 93.151 519.392C93.0845 522.083 92.6175 524.317 92.5 527C92.3798 529.746 92.4567 532.669 92.151 535.392C90.907 546.472 90.969 558.231 91.0229 569.392C91.1095 587.354 92.9084 605.605 95.3045 623.392C96.4783 632.106 97.5 637 98.5 645.5C98.5 646 99.5 652 99.5 652C99.5 652 99.891 655.41 100 656.5C100.5 661.5 101.22 666.344 102.106 671.392C112.11 728.379 126.33 790.737 162.536 837.392C184.511 865.709 214.504 888.081 245.022 906.392C262.564 916.917 282.265 928.7 302.022 934.392C298.824 929.731 292.568 926.622 288.022 923.276C277.693 915.676 266.499 908.006 259.022 897.392C277.239 908.634 294.966 920.089 315.022 927.928C339.26 937.402 366.026 943.522 392.022 945.303C405.236 946.207 418.777 945.393 432.022 945.392C440.865 945.391 448.522 943.294 457.037 942.001C464.932 940.801 472.277 939.7 480.022 937.392C485.119 935.874 493.522 932.661 496.522 930.892C499.522 929.123 504.022 927.392 510.022 924.392C516.022 921.392 518.022 919.892 522.022 917.392C528.522 912.892 538.817 904.42 545.522 900.892C536.065 911.717 523.008 928.454 511.022 936.392C515.639 937.215 524.192 933.714 526.522 932.892C535.022 929.892 544.508 923.662 552.022 919.674C555.743 917.699 560.522 914.892 563.022 913.392C567.522 910.892 569.022 909.892 571.522 908.392L573.022 907.392C580.522 902.392 588.022 896.892 595.022 890.392C598.522 886.892 599.608 886.249 602.322 883.727C607.579 878.843 615.022 871.392 619.522 865.892C624.022 860.892 627.522 856.292 631.022 851.392C633.522 847.892 635.022 845.892 637.022 842.392L639.022 839.392C640.522 836.892 642.022 834.392 643.022 832.392C645.022 829.392 645.758 828.185 647.11 825.392C649.595 820.257 651.522 815.392 654.022 810.392C656.022 806.392 656.314 805.946 657.522 802.892C658.022 801.892 661.05 795.272 662.596 791.392C663.925 788.057 665.522 782.892 667.022 779.392L668.022 776.392C669.522 771.892 671.675 763.765 672.522 761.392C673.594 758.392 676.522 749.392 677.022 747.392L678.022 743.392C678.564 740.142 679.012 737.423 680.022 734.392C681.182 730.913 681.684 729.255 682.5 725.583C682.69 724.73 683.309 722.244 683.522 721.392C684.022 719.892 684.308 719.033 684.522 718.392C685.022 716.892 685.022 716.392 685.522 714.392L686.022 711.392C687.132 702.607 690.285 693.33 691 684.583C687.269 690.512 686.049 698.761 683.996 705.392C680.483 716.742 676.313 728.454 671.689 739.392C649.435 792.028 624.146 842.53 580.022 880.522C568.893 890.105 559.409 895.628 545.522 900.892C555.522 898.892 557.93 891.731 561.522 882.392C537.432 897.394 515.653 916.661 486 919.083C483.5 919.5 483 919.5 482 919.583C480.505 919.708 479.5 919.654 475 920C468.5 920.5 465 920 459 919.5L458.022 919.392C452.5 918.5 447.132 917.283 442 916C428.768 912.693 416.881 909.532 403.022 910.481C393.705 911.12 384.347 914.212 375.022 914.213C352.884 914.214 329.238 908.226 310.022 897.161C288.555 884.798 266.811 867.245 253.101 846.392C243.963 832.495 238.152 816.525 234.358 800.392C231.417 787.882 230.402 775.108 229.192 762.392C228.734 757.582 230.649 750.001 227.994 745.772C224.916 740.868 215.753 738.589 211.022 735.363C200.575 728.241 191.38 719.497 182.737 710.303C148.105 673.461 125.917 623.938 117.608 574.392C113.919 552.389 113.45 524.766 130.312 507.678C132.883 505.073 135.833 502.57 139.022 500.758C154.113 492.178 163.935 501.937 176.022 509.847C181.632 513.519 187.807 516.327 194.022 518.791C216.034 527.517 242.093 529.312 265.022 524.275C272.58 522.615 280.203 521.231 287.022 517.392C280.499 515.411 269.96 519.562 263.022 520.222C251.263 521.342 240.535 518.879 229.022 517.392C238.065 514.719 248.59 516.554 258.022 514.957C272.604 512.488 289.209 509.338 302.852 503.529C308.436 501.151 314.714 495.118 320 492C316.577 490.988 312.478 492.941 309 494.5C302.369 496.707 295.816 499.422 289 501C282.432 502.52 274.717 504.838 268 505C255.173 505.309 243.276 501.266 232.022 495.639C226.777 493.016 221.141 490.64 217.022 486.392L234.5 490.5H241.5C238 488 229.451 486.186 226.022 484.716C222.366 483.149 218.918 480.814 215.022 479.863C208.635 478.304 201.264 479.854 195.022 481.392C206.381 472.236 218.214 462.43 231.022 455.392C224.401 453.439 213.276 460.827 207.022 463.392C216.32 450.229 233.127 440.804 248.022 435.392C243.255 433.739 236.546 437.483 232.022 439.315C217.052 445.375 204.077 458.043 191.022 467.392C210.328 439.157 246.942 421.045 281.022 421.396C293.825 421.528 305.552 426.303 318.022 427.392C312.542 419.682 303.098 414.647 295.022 409.968C283.287 403.167 268.545 394.993 255.022 392.718C241.834 390.498 228.34 392.392 215.022 392.392C218.767 393.963 223.065 393.366 227.022 394.574C243.903 399.729 260.783 405.235 274.022 417.392C245.205 417.411 220.365 435.19 195.022 446.38C182.433 451.939 162.687 455.794 158.185 438.392C156.78 432.962 158.905 427.866 159.022 422.392C156.102 423.725 153.685 425.595 151.022 427.392C154.207 405.829 170.115 382.93 189.022 372.392L188.022 370.392C196.84 366.268 204.134 355.277 211.022 348.392C221.206 338.212 233.242 329.032 240.557 316.392C248.929 301.927 251.213 281.78 252.851 265.392C255.528 238.623 251.681 207.909 272.322 186.678C282.848 175.851 293.07 175.823 307.022 173.968C335.969 170.118 365.852 173.439 395.022 173.392C410.7 173.367 426.102 169.653 441.022 165.19C453.706 161.396 466.559 156.422 480.022 156.421C518.193 156.419 551.692 173.931 582.022 195.356C600.704 208.553 618.858 224.042 632.647 242.392C639.885 252.024 646.412 262.469 651.533 273.392C654.401 279.51 656.103 286.923 660.022 292.392C659.5 289.083 657.5 281.583 657 279.083C655.5 274.083 655.054 268.935 652.908 262.392C647.852 246.978 640.493 233.609 629.736 221.392C622.962 213.697 614.838 207.773 607.022 201.247C581.74 180.138 555.041 164.324 524.022 153.175C506.713 146.954 487.638 141.511 469.022 143.5C459.507 144.517 449.615 153.871 441.022 157.991C423.665 166.312 402.132 170.94 383.022 167.392Z" fill="#ECECEC"/>
<path d="M186.5 370.5C191.051 371.695 196.598 366.689 200.558 364.66C209.775 359.938 219.398 355.712 229.584 353.554C240.283 351.286 251.858 353.375 262.613 353.846C275.493 354.41 288.854 352.507 301.647 354.175C310.057 355.272 317.004 358.736 324.667 361.899C323.06 359.982 321.882 359.057 319.663 357.892C327.451 358.612 333.379 363.755 339.681 367.909C337.175 363.09 333.744 359.859 328.671 357.892C338.096 356.708 345.811 364.785 350.69 371.915C351.342 367.998 348.632 364.234 346.687 360.897C353.143 365.449 358.527 371.662 361.7 378.927C362.507 375.081 360.483 371.299 358.697 367.909C364.205 372.946 368.772 380.521 370.175 387.942C370.971 392.151 369.735 395.854 371.509 399.962C376.116 410.634 382.99 419.941 386.857 431.013C394.167 451.941 394.947 477.404 391.111 499.125C389.823 506.417 389.075 513.991 387.244 521.162C381.663 543.023 372.842 565.115 385.648 586.269C388.622 591.181 392.324 596.136 396.746 599.823C409.908 610.802 424.872 612.245 440.77 606.948C449.863 603.918 460.986 597.782 470.795 598.437C478.21 598.932 480.757 607.363 482.804 613.314C483.73 616.009 484.591 620.733 487.901 621.495C492.32 622.514 494.341 614.663 495.634 611.735C500.717 600.226 492.033 584.183 486.81 574.249C501.98 587.733 508.379 612.412 497.943 630.342C490.331 643.42 467.96 652.718 457 638L461 636C459.72 633.285 457.431 629.827 453.78 630.263C449.238 630.806 445.583 637.012 442.486 639.894C436.963 645.029 430.424 648.181 423 649.5C419.453 650.131 412.434 647.603 410.5 651.5C409.278 653.964 411.925 659.035 412.811 661.393C414.984 667.18 418.657 672.281 419.751 678.421L416.748 676.418L414.747 680.424L413.746 676.418C413.06 677.668 412.996 677.968 412.745 679.423C407.292 679.404 404.3 678.746 400.734 674.415C398.486 675.519 397.824 675.739 395.73 674.415C388.209 675.968 380.582 677.965 373.711 681.426L374.711 678.421C371.03 680.855 367.783 683.704 363.702 685.433C364.66 683.914 365.09 683.09 365.703 681.426C361.799 683.593 358.277 686.897 353.693 685.433C349.31 689.633 344.88 694.313 339.681 697.453V693.446C328.439 701.34 319.469 714.059 306.651 719.489C307.52 717.13 308.227 714.95 308.653 712.477C302.418 717.505 297.226 723.824 290.637 728.504L292.639 723.496C289.156 726.59 286.447 730.218 284.632 734.514L283.631 730.507C280.632 733.483 278.736 738.2 274.623 739.522C272.934 742.538 271.972 745.093 271.621 748.537L267.617 747.535L263.614 755.548C258.063 749.002 258.257 741.664 259.328 733.512C261.221 719.101 267.449 707.959 278.627 698.705C283.06 695.035 290.502 687.112 296.643 688.438C299.397 686.2 305.054 679.598 308.653 681.426C313.218 679.022 318.216 677.127 320.664 672.411C321.688 673.948 321.469 673.816 322.666 674.415C325.975 671.971 328.836 670.143 330.673 666.401C321.686 665.485 316.848 655.423 315.659 647.37C311.337 650.688 308.308 655.315 304.7 659.39C295.106 670.225 286.419 681.804 276.625 692.444C288.953 656.201 311.187 625.265 328.005 591.277C335.835 575.453 339.761 558.537 346.113 542.196C352.28 526.336 360.198 511.305 365.703 495.119C359.88 498.522 355.079 504.685 349.689 508.93C337.378 518.627 323.982 527.955 310.655 536.186C323.837 523.267 339.318 511.346 349.969 496.12C355.696 487.933 359.942 479.013 347.688 475.086C348.199 477.778 349.045 481.113 345.584 482.069C339.703 483.693 332.812 480.57 326.669 481.535C313.115 483.665 300.509 489.013 286.634 490.11C299.974 484.44 320.495 484.546 328.671 471.079C320.542 461.878 310.419 456.265 298.644 453.049C300.166 465.096 298.371 476.847 287.631 484.452C268.68 497.869 240.318 481.04 243.596 458.057C234.804 460.837 227.625 466.791 219.575 471.079C221.251 476.784 226.548 479.079 231.585 481.571C241.273 486.362 251.66 489.884 262.613 490.11C254.156 492.606 244.25 488.791 235.589 488.107C237.604 489.334 238.157 489.644 240.5 490C232.545 491.182 224.634 486.807 216.572 486.104C220.063 491.546 227.955 494.076 233.587 496.874C244.47 502.281 257.302 506.013 269.619 505.042C286.747 503.692 302.173 495.931 318.662 492.114L304.65 501.129C311.013 502.466 320.486 497.098 326.669 495.119C303.795 511.762 275.401 523.918 246.5 526.5C231.901 526.5 213.011 524.848 198.556 520.071C190.588 517.436 182.451 513.698 175.536 508.921C169.688 504.882 164.767 499.096 157.52 497.602C139.635 493.914 125.387 507.414 119.437 523.165C112.83 540.658 114.782 561.202 117.731 579.257C125.261 625.358 147.517 674.194 179.539 708.456C188.478 718.019 197.815 727.279 208.565 734.793C213.92 738.535 222.931 740.802 226.978 745.913C229.406 748.979 228.577 753.899 228.583 757.552C228.594 764.682 228.927 772.546 230.023 779.588C233.935 804.721 239.847 831.007 255.506 851.707C283.956 889.315 326.823 912.643 373.711 914.707C387.412 915.31 400.827 909.935 414.747 910.894C430.388 911.973 444.98 918.647 460.787 919.73C497 924.5 533.205 906.722 560.875 882.758C555.68 891.884 538.598 911.799 534.5 921.5C548.399 916.227 569.754 890.484 580.893 880.885C621.401 845.98 648.071 798.623 667.77 749.539C676.457 727.891 686.366 705.264 691.476 682.428C696.034 662.06 698.089 641.036 700.167 620.325C702.203 600.03 704.853 579.641 704.997 559.224C705.077 547.905 703.292 536.482 703.016 525.168C702.562 506.659 701.357 488.524 700.087 470.077C699.243 457.808 699.197 445.106 696.709 433.016C693.916 419.441 690.525 405.541 684.586 392.95C679.89 382.995 673.423 373.666 670.577 362.9C668.562 355.28 669.411 347.603 668.882 339.862C667.835 324.565 665.756 309.38 660.86 294.788C646.48 251.927 618.032 220.01 581.894 193.876C560.148 178.15 536.444 164.372 509.83 159.013C493.515 155.727 477.14 154.78 460.787 157.936C445.821 160.826 431.936 168.141 416.748 170.296C386.154 174.64 355.5 171 324.667 171.585C317.538 171.585 310.72 172.732 303.649 173.418C288.874 174.85 277.427 176.606 268.057 189.629C252.449 211.324 254.281 237.501 252.514 262.735C251.691 274.486 249.401 287.424 246.309 298.795C240.422 320.45 224.767 332.668 209.566 347.876C202.403 355.041 194.749 364.669 186.5 370.5Z" fill="#FFFFFE"/>
<path d="M151 427C164.607 419.172 176.496 409.232 192 405C188.389 403.488 184.771 404.3 181 405C184.385 402.043 188.713 401.473 193 400.37C199.991 398.573 206.719 396.151 214 396C211.668 395.015 209.543 395.019 207 395V393C218.537 392.904 230.528 389.355 242 390.184C262.379 391.657 283.078 401.949 300 412.783C307.409 417.527 314.458 422.046 320 429C287.74 415.768 249.088 421.1 220 439.471C209.869 445.87 197.606 455.193 192 466C205.493 458.488 215.992 446.474 230 439.89C253.277 428.949 280.076 424.603 305 432.042C310.728 433.752 315.703 437.077 321 439.752C331.92 445.268 341.89 452.152 349.269 462C353.706 467.92 365.246 474.538 366.382 482C366.963 485.816 364.56 490.21 364 494C368.908 490.849 371.599 484.065 374.255 479C376.825 474.102 379.874 469.586 380.699 464C384.278 439.782 366.066 413.744 344 405C350.642 403.037 359.695 405.772 365.772 401.976C368.456 400.299 369.102 396.9 369.559 394C370.912 385.431 366.608 377.837 362 371C361.533 374.692 362.997 378.438 364 382C359.199 374.461 355.544 367.317 348 362L353 373C345.508 366.647 341.537 359.814 331 358C334.975 361.87 338.336 365.025 341 370C335.948 364.414 330.087 361.311 323 359L326 363C319.967 359.839 313.776 356.686 307 355.465C294.553 353.22 281.579 355.02 269 355C254.378 354.977 239.549 352.219 225 355.286C191.069 362.438 156.244 391.495 151 427Z" fill="#010101"/>
<path d="M507.252 381.203C507.441 377.104 509.569 373.907 511.252 370.203C504.768 373.953 500.432 379.48 497.252 386.203C496.772 382.975 497.533 380.38 498.252 377.203C494.307 381.026 491.423 386.171 489.252 391.203C489.53 388.103 490.539 385.242 491.252 382.203C482.94 391.053 480.901 410.519 497.25 411.16C499.758 411.258 501.875 410.906 504.252 410.203C495.878 418.692 484.011 423.673 475.426 432.373C464.669 443.273 458.874 462.118 461.72 477.203C462.721 482.514 465.769 487.055 467.252 492.203C469.404 487.122 468.816 481.32 471.441 476.203C478.14 463.145 494.196 453.836 507.252 448.203C500.169 454.067 492.674 458.506 487.252 466.203C500.43 461.841 511.302 451.746 525.252 448.72C567.69 439.516 608.53 461.415 631.252 497.203C632.319 488.449 622.688 479.91 618.252 473.203C623.053 477.965 627.998 482.983 633.252 487.203C628.982 476.103 617.839 467.641 608.252 461.204C583.18 444.368 548.233 433.034 518.252 443.203C529.471 430.561 547.611 420.09 564.252 417.053C567.567 416.447 570.909 417.3 574.252 417.11C583.497 416.583 591.998 416.436 601.252 417.114C612.922 417.97 624.259 418.969 635.252 423.203C631.595 424.284 628.053 424.203 624.252 424.203C633.094 429.016 643.103 432.881 652.252 437.203C648.23 436.923 644.23 435.953 640.252 435.203C646.142 440.157 653.082 443.943 659.252 448.578C664.119 452.234 668.295 456.711 673.252 460.203C669.952 434.113 657.37 414.301 637.252 397.739C632.027 393.438 627.618 389.187 621.252 386.551C616.425 384.552 611.318 384.492 606.252 383.588C598.567 382.217 590.884 380.101 583.252 378.388C577.106 377.008 571.41 374.056 565.252 372.72C554.87 370.468 546.278 371.468 536.252 374.203C538.255 372.93 540.029 372.031 542.252 371.203C535.17 368.238 525.428 372.615 519.252 376.203C521.302 373.54 523.343 371.891 526.252 370.203C519.244 368.752 510.418 375.367 507.252 381.203Z" fill="#010101"/>
<path d="M214 393L216 396C206.175 396.209 196.514 399.819 187 402C189.89 403.213 192.874 402.998 196 403C187.824 407.537 178.407 410.314 170 414.78C166.784 416.488 161.076 419.363 159 422.5C154.657 429.062 156.259 441.79 162.394 447.081C166.846 450.921 173.424 452.183 179 451.5C193.58 449.714 206.306 441.826 219 435C235.09 426.349 255.983 417.551 274.5 417.5C270.146 411.824 263.334 407.878 257 404.756C243.846 398.272 228.668 393 214 393Z" fill="#F4F4F3"/>
<path d="M370 397C363.623 404.739 356.554 404.999 347 405C350.975 408.807 355.909 411.444 359.985 415.174C370.34 424.647 379.684 438.887 381.7 453C383.823 467.865 373.153 479.61 366.687 491.961C363.795 497.484 362.5 503 360.047 510C354 523 348 535 343.424 549C337.086 566.022 332.451 582.844 323.691 599C311.373 621.72 297.618 643.298 287.138 667C283.526 675.171 278.577 683.757 276.5 692.5C282.815 687.671 296.596 670.164 301.5 664C308.855 654.755 307.012 656.698 315 648C315.778 656.915 323 671 323 670.5L324.5 672C333.5 675 345.36 661.658 348 656C358.527 654.233 366.219 641.61 377.91 640.789C384.17 640.349 395.425 643.034 401 645.839C404.071 647.384 406.689 650.602 410 651.526C412.425 652.203 414.677 650.755 417 650.294C420.325 649.635 423.675 649.701 427 648.866C433.24 647.298 438.902 643.946 443.576 639.536C446.364 636.904 449.934 631.179 453.999 630.631C457.232 630.195 459.423 633.796 461 636L457 638C458.829 641.709 460.958 643.182 465 644C463.598 642.649 462.824 641.746 462 640C466.271 640 470.808 640.419 475 639.471C488.935 636.323 495.31 622.628 496.5 609C493.291 611.197 493.51 619.333 489.794 620.503C486.145 621.652 484.546 616.48 483.671 614C481.347 607.41 479.384 598.376 470.999 598.059C451.083 597.304 434.578 614.16 414 608.51C393.039 602.755 377.436 578.33 379.5 557C380.792 543.651 386.694 528.606 389.116 515.5C399 478 399.071 445.5 379.5 409.5C376.79 404.515 373.613 401.361 370 397Z" fill="#E5E5E5"/>
<path d="M484 401C477.718 415.989 463.787 428.797 465 446C470.288 440.784 473.23 433.833 479.09 428.884C483.276 425.348 487.462 421.75 492 418.671C495.443 416.335 499.605 414.424 502 411C492.403 410.999 489.128 408.942 484 401Z" fill="#989997"/>
<path d="M266 429V431C282.488 431 299.863 432.912 313 444C306.391 444.284 300.626 444.837 294 444C297.956 446.487 302.72 447.156 307 449.015C320.435 454.848 338.308 463.917 347 476C360.025 477.059 355.303 487.823 350.279 495C339.375 510.575 321.948 520.779 311 536C316.494 533.689 321.089 529.686 326 526.344C337.922 518.231 349.5 509.5 361.5 499.5C369 492.5 367.396 487.471 365.667 480.015C364.172 473.564 354.52 467.921 350.3 463C335.368 445.586 314.963 433.049 292 429.325C283.283 427.911 274.711 428.928 266 429Z" fill="#989997"/>
<path d="M254 432L255 434C241.451 434.114 227.154 443.716 217 452.084C213.033 455.353 209.202 458.79 207 463.5C227.188 457.729 245.018 445.709 266 442.439C277.295 440.679 287.879 443.758 299 444.83C303.747 445.288 308.297 444.371 313 444C309.372 439.653 304.204 437.643 299 435.615C284.647 430.021 268.879 429.813 254 432Z" fill="#F4F4F3"/>
<path d="M197 480C202.113 479.35 207.86 477.338 213 478.394C217.318 479.282 220.932 482.215 225 483.792C233.071 486.92 241.351 488.629 250 489C242.803 485.535 235.114 483.682 228 479.572C225.709 478.248 221.056 476.172 221.056 472.997C221.056 470.071 224.911 468.14 227 466.812C232.838 463.099 238.76 459.968 245 457C240.552 481.32 271.767 499.858 290.675 482.471C299.557 474.304 299.393 463.022 298 452C307.319 455.48 316.81 458.825 323.985 466.015C325.938 467.973 330.063 471.479 328.744 474.697C327.677 477.301 323.293 477.913 321 478.875C313.533 482.007 305.918 485.167 298 487C303.634 489.198 310.499 485.278 316 483.745C324.959 481.249 332.79 480.79 341.999 481.71C344.681 481.978 349.077 481.858 348.263 477.942C347.427 473.917 343.062 470.849 339.985 468.579C332.363 462.957 324.507 457.671 316 453.475C303.824 447.468 291.755 442.917 278 442.209C255.682 441.061 234.596 451.673 217 464.15C210.274 468.92 202.222 473.585 197 480Z" fill="#010101"/>
<path d="M487.5 465.5C492.093 460.513 503.773 452.742 508 447.5C490.392 453.91 463.652 471.26 467.5 490.5C468 493 468 493 468.5 494L473 500C472 493 474.386 484.118 477 477H479C479.868 479.355 480.574 481.531 481 484C502.785 473.209 520.687 460.21 546 460C540.288 456.578 532.545 458.22 526 457C528.643 451.596 537.259 447.79 543 447H539C518.5 447.5 505.075 456.759 487.5 465.5Z" fill="#989997"/>
<path d="M526 457C540.154 460.409 555.068 459.696 569 464.026C579.027 467.142 589.108 471.254 598 476.875C604.907 481.241 611.074 486.687 618 491C617.902 480.023 612.268 473.228 604 466.615C590.7 455.977 573.688 450.108 557 447.729C547.743 446.41 529.332 445.682 526 457Z" fill="#F4F4F3"/>
<path d="M279.148 452.032C272.98 455.561 278.411 465.612 284.656 461.816C290.805 458.078 285.508 448.394 279.148 452.032Z" fill="#F4F4F3"/>
<path d="M459 456C458.66 463.911 455.521 477.382 463 483C461.734 478.496 460.393 473.706 460.259 469C460.123 464.207 461.627 460.387 459 456ZM461.5 456.667C461.445 456.722 461.5 456.5 461.5 456.667V456.667Z" fill="#989997"/>
<path d="M523 500C515.964 493.413 504.022 492.71 499 484C508.564 478.905 515.707 472.522 527 471C525.257 476.5 524.201 482.251 525.529 488C529.127 503.57 550.131 510.949 564 504.779C574.757 499.994 579.905 490.382 580 479C589.784 483.361 598.336 492.817 605 501C593.313 505.866 582.975 510.893 570 511C576.341 513.661 588.432 512.83 595 510.96C599.581 509.656 604.217 507.198 609 506.807C613.853 506.41 618.436 508.755 623 510L621 507L626 508C620.63 499.408 612.48 495.446 605 488.833C596.742 481.532 589.993 473.746 580 468.333C561.683 458.411 542.241 461.626 523 464.833C511.584 466.736 501.201 472.733 491 477.833C488.409 479.129 481.333 482.656 481.333 486C481.333 490.119 488.395 489.718 491 490.333C501.804 492.884 512.127 497.997 523 500Z" fill="#010101"/>
<path d="M559.228 472.029C552.399 476.155 559.402 485.123 565.852 481.528C572.806 477.651 565.577 468.193 559.228 472.029Z" fill="#F4F4F3"/>
<path d="M233 517.261C239.899 520.358 248.597 519.261 256 519.261C267.499 519.261 279.97 519.562 291 516C302.564 512.267 312.142 504.109 322.5 498C314.281 496.274 302.938 503.841 295 506.12C274.793 511.92 254.133 517.261 233 517.261Z" fill="#010101"/>
<path d="M19 623C24.2966 617.347 21 605.366 21 598C21 576.969 19.1495 555.948 22.6111 535C23.0762 532.186 23.238 529.109 24.2392 526.424C24.8115 524.89 25.6593 523.345 26.689 522.069C34.4302 512.483 43.672 524.493 48.2292 531C51.1505 535.171 53.7928 539.624 56.3958 544C60.8296 551.454 65.6082 559.637 68 568C69.3964 567.339 69.8136 567.536 71 566.5C70 562.5 68.5568 552.42 66.8449 546C64.3228 536.542 60 528.5 57 519C56.9089 518.711 56.5 518 56.5 518C52 510 43.1941 496.061 31.0895 503.14C24.5406 506.969 20.1707 516.017 18.0394 523C8.01511 555.841 15.3984 590.028 19 623Z" fill="#FEFFFE"/>
<path d="M497 506C516.399 524.734 545.312 536.073 572 537.911C580.761 538.514 589.303 537.18 598 537C593.887 534.19 588.782 535.226 584 534.575C574.897 533.335 565.93 530.911 557 528.765C536.116 523.746 517.674 511.643 497 506Z" fill="#010101"/>
<path d="M719 595C725.28 587.42 727.647 577.073 733.438 569.015C735.388 566.302 738.335 561.753 742.047 561.451C745.227 561.193 747.028 564.291 747.591 567.005C748.59 571.817 746.322 578.093 745.831 583C743.582 605.477 739.855 628.384 733 650C728.095 633.443 730.008 614.826 726 598C722.714 602.347 721.483 607.944 719.575 613C717.124 619.492 712.704 626.831 713.225 634C713.497 637.743 715.179 641.35 715.986 645C718.114 654.616 719.381 663.237 717.54 673C716.166 680.285 714.679 688.596 710.786 695C707.908 699.735 702.791 702.922 700.51 708C696.826 716.203 695.2 728.092 694 737C696.309 734.258 697.938 731.004 701.043 729.005C710.884 722.672 720.473 728.19 726 737C721.403 737.06 715.622 738.899 711 740V734C714.121 734.57 716.038 734.03 719 733C717.075 727.263 713.214 731.288 709 732.16C706.929 732.588 704.275 731.869 702.657 733.618C700.187 736.29 703.426 740.814 703.255 743.911C703.002 748.466 699.627 753.146 699 758C704.446 757.576 705.139 755.015 704 750C706.741 752.491 708.664 755.298 712 757C714.777 752.478 718.335 748.811 722 745C722.839 747.626 723.374 748.161 726 749C726.343 746.194 727.155 743.695 728 741L725 740C726.479 739.014 726.203 739 728 739C728 713.237 734.169 689.055 739.336 664C743.486 643.872 746.681 623.398 749.155 603C750.658 590.606 752.531 578.555 751.961 566C751.537 556.677 744.57 537.026 732.015 546.434C730.343 547.687 728.871 549.275 727.702 551.004C721.846 559.666 722.063 572.989 720.816 583C720.306 587.097 719.089 590.825 719 595Z" fill="#F4F4F3"/>
<path d="M44 545C38.318 565.172 33.7905 585.322 30.561 606C28.3495 620.159 26.2653 635.753 29.8441 649.911C32.3112 659.67 39.6962 668.605 44.9498 677C46.7588 679.89 48.5942 682.782 49.7662 686C51.2089 689.961 51.3915 694.483 55 697C56.0257 690.564 60.6545 692.232 64.3966 688.297C66.3595 686.233 66.1821 682.618 65.787 680C64.4467 671.118 56.897 666.858 51.2894 660.907C44.8696 654.093 40.4217 643.405 40.0401 634C38.9381 606.84 56.0678 582.29 47.3372 555C46.2436 551.582 46.0666 547.909 44 545Z" fill="#F4F4F3"/>
<path d="M370 556C353.198 556.404 344.2 573.281 342.289 588C341.609 593.237 341.454 601.605 345.433 605.682C353.535 613.983 367.373 601.78 370.142 594C371.524 590.118 370.137 584.98 369.576 581C368.334 572.191 369.928 564.736 370 556Z" fill="#F4F4F3"/>
<path d="M347 568C338.432 578.047 330.087 590.416 329.09 604C328.589 610.831 329.055 617.881 332.417 624C339.244 636.425 355.198 641.058 368 637C361.963 632.805 354.204 633.21 348.015 628.319C334.302 617.485 333.908 600.148 339.926 585C341.964 579.872 347.829 573.571 347 568Z" fill="#010101"/>
<path d="M490 578C491.479 583.137 494.252 587.767 495.497 593C499.756 610.905 496.338 635.154 475 639.55C470.868 640.401 467.137 640.9 463 640C464.165 643.999 468.074 644.815 472 644.981C479.178 645.286 486.591 642.682 491.981 637.847C507.953 623.52 505.924 591.776 490 578Z" fill="#010101"/>
<path d="M372.015 602.704C366.533 604.58 360.675 613.281 366.318 618.121C373.442 624.232 380.832 617.097 388 619.338C392.573 620.767 395.906 625.712 399.09 628.988C403.331 633.354 409.054 637.653 415 639.362C424.043 641.96 431.867 637.497 437.83 630.996C441.022 627.516 444.28 622.047 449 620.508C456.023 618.218 463.479 626.653 470.852 621.258C475.216 618.064 475.022 610.105 470.772 606.894C467.842 604.68 463.491 604.758 460 605.105C448.473 606.25 442.162 618.9 434 625.532C430.044 628.748 425.349 632.163 420 631.029C407.31 628.34 404.158 617.5 395.79 609.62C392.011 606.061 387.803 605.099 383 603.657C379.416 602.581 375.724 601.434 372.015 602.704Z" fill="#010101"/>
<path d="M330 672C330.986 670.521 331 670.797 331 669C327.264 670.86 324.153 673.273 321 676V674C315.768 677.414 310.184 678.748 305 681.752C300.056 684.616 298.768 684.291 294.5 688L295 687C269.054 698.813 254.063 726.566 262 754C265.858 751.996 267.349 748.934 269 745C269.986 746.479 270 746.203 270 748C272.837 744.251 273.822 739.52 277 736L276 740C278.864 736.715 281.137 732.938 283 729L286 731C288.174 728.057 290.338 725.26 292 722C292.21 723.847 292.194 725.143 292 727C298.86 722.187 304.245 716.012 310 710C309.584 713.083 308.842 716.006 308 719C320.393 711.775 329.336 700.184 341 692L340 697C343.835 695.134 352.371 683.581 356 687L367 680L365 685C369.32 682.754 372.544 679.041 377 677C375.814 678.186 375.472 678.584 375 680C379.554 678.243 384.177 676.053 389 675.171C393.331 674.38 397.701 674.851 402 674C404.116 679.532 409.951 680.218 413 675L415 678C416.351 676.598 417.254 675.824 419 675C416.572 668.316 413.77 660.028 410.005 654.001C405.828 647.312 396.299 642.86 389.5 641.5C382 640 373 642 370 643C350 647 345.466 663.379 330 672Z" fill="#010101"/>
<path d="M438 648C435.611 650.076 434.414 652.166 433 655L432 652C430.268 653.978 429.598 655.434 429 658L426 657C425.027 661.703 420.518 670.111 421.812 674.701C422.691 677.822 428.223 680.189 431 681L432 678C435.353 681.03 437.914 679.402 442 680C443.914 678.394 444.837 677.217 446 675C451.922 677.478 457.495 680.717 463 684L460 677C464.185 682.192 468.141 688.642 474 692L473 686C475.672 689.742 477.969 693.495 479 698C479.874 695.948 479.953 694.253 480 692C484.365 696.314 486.187 701.078 492 704V699C498.334 704.508 501.103 713.54 506.877 719.687C509.344 722.314 513.158 723.542 515.961 725.874C524.986 733.384 533.891 741.636 541 751C541.683 749.494 541.826 748.685 542 747C543.722 750.889 544.84 754.913 546 759C546.911 757.624 547.404 756.56 548 755C548.562 756.801 548.824 758.122 549 760L552 759C551.677 761.032 551.66 761.982 552 764C557.033 759.353 556.997 752.464 557 746C557.006 731.244 552.804 711.213 538 704L539 709C535.87 704.74 533.137 700.347 529 697L530 701C524.091 696.235 519.358 690.347 513 686L514 692C510.001 687.655 506.698 682.596 502 679L503 684C499.206 678.422 495.557 672.947 490 669C491.115 671.571 492.373 673.715 494 676C486.25 670.541 480.75 662.459 473 657C470.5 655.5 464.18 651.488 460.999 649.866C452.671 645.619 446.205 649.171 438 648Z" fill="#010101"/>
<path d="M731.996 657C731.734 669.69 727.5 674.5 722 695C719.518 701.371 716.028 714.136 715 721C725.691 709.838 732.817 689.38 733 674C733.051 669.761 733.647 660.934 731.996 657Z" fill="#010101"/>
<path d="M317 723C321.544 724.049 326.239 719.709 331 719.174C340.102 718.152 348.903 718.381 358 716.551C365.588 715.024 374.247 711.475 382 711.625C393.205 711.841 402.906 719.479 414 720.71C421.499 721.542 429.514 718.847 437 718.171C441.882 717.729 447.155 718.634 452 719.289C459.806 720.343 466.5 723 474 726C478 728 481.623 730.445 485 732.287C494.499 737.469 502.74 743.862 514 744C510.952 737.424 505.028 732.547 500.464 727C488.322 712.246 473.818 689.23 453 686.21C441.411 684.529 431.408 693.011 420 692.97C408.38 692.928 399.222 683.16 387 683.179C367.803 683.209 350.351 699.215 336 709.964C329.866 714.559 323.239 718.531 317 723Z" fill="#989997"/>
<path d="M68 692C64.8889 693.268 62.345 693.107 59 693C60.9343 696.959 63.7443 698.982 68 700L65 704C61.8134 701.586 58.7403 701.897 55 703V699C49.1293 701.304 50.6663 705.906 52 711C54.0706 709.676 54.1391 709.453 54 707C58.1338 710.664 61.9649 714.819 64 720C62.2031 720 62.4786 720.014 61 721L60 717C56.8973 716.8 54.0437 715.685 51 716V713H49C49.7782 720.597 54.0398 726.803 61 730C60.2321 728.686 60.3141 728.768 59 728C61.394 726.863 62.6261 726.23 64 724C62.1032 724.632 62.7804 724.78 62 724C64.8244 721.213 68.4488 718.775 72 717C71.3288 720.843 71.4967 723.382 73 727C73.6849 725.752 73.7488 725.452 74 724L77 725C78.5543 718.777 74.4787 714.762 73 709C74.8027 709.894 77.0144 711.924 79.0509 712.098C83.5284 712.481 84.5133 707.168 84 704C81.2614 705.05 78.9447 705.809 76 706L78 700L68 697C68.4358 694.949 68.6218 693.943 68 692Z" fill="#F4F4F3"/>
<path d="M72 693C72.578 695.698 73.2614 695.789 76 696C74.6589 694.726 73.5969 693.959 72 693Z" fill="#F4F4F3"/>
<path d="M71 700V706C72.7662 703.58 72.7662 702.42 71 700Z" fill="#989997"/>
<path d="M82 702C84.861 706.337 85.3582 710.926 86 716C88.0406 711.137 87.5386 703.898 82 702Z" fill="#60605F"/>
<path d="M82 717L83 712C80.364 713.513 79.346 714.94 82 717Z" fill="#60605F"/>
<path d="M85 712C83.8486 714.987 82.7395 717.882 82 721H85C85.7625 717.792 86.2818 715.083 85 712Z" fill="#383838"/>
<path d="M291 742C303.502 748.292 312.62 743.757 325 739.897C341.768 734.669 358.104 726.255 376 727.039C385.637 727.462 394.574 731.314 404 732.855C415.155 734.679 426.88 733.74 438 731.92C458.271 728.602 475.153 738.907 493 746.861C500.296 750.113 511.623 757.596 519.995 755.308C523.705 754.294 528.732 748.461 524.397 745.028C522.156 743.254 518.553 744.328 516 744.486C512.357 744.712 508.453 744.066 505 742.896C492.032 738.5 480.654 729.523 468 724.15C457.887 719.855 445.966 718.338 435 719.089C428.611 719.527 422.448 721.143 416 720.985C404.731 720.709 395.143 712.94 384 712.094C378.475 711.675 373.321 713.4 368 714.576C358.5 717 348.759 718.568 339 719.5C334.426 719.937 329.939 720.115 325.5 721.5C319.391 723.405 313.011 727.234 307 729.834C299.994 732.865 294.019 734.329 291 742Z" fill="#010101"/>
<path d="M70 717C69.1658 719.896 68.6354 721.928 71 724C70.8506 721.528 70.8943 719.288 70 717Z" fill="#60605F"/>
<path d="M71 717V720C71.6961 718.446 71.6961 718.554 71 717Z" fill="#989997"/>
<path d="M75 727C76.5801 727.684 76.7772 727.805 78 729C81.9938 727.047 84.2626 724.538 84 720C80.7329 721.83 77.0872 723.885 75 727Z" fill="#60605F"/>
<path d="M68 723L69 728C69.6513 725.766 69.3182 724.926 68 723Z" fill="#F4F4F3"/>
<path d="M70 724L71 729L66 730C69.8935 731.63 73.9213 730.516 78 730V727L72 728C72.2182 726.314 72.2239 725.684 72 724H70Z" fill="#383838"/>
<path d="M74 724V727C75.0154 725.861 75.3087 725.388 76 724H74Z" fill="#989997"/>
<path d="M719 733C716.202 733.592 713.881 734.192 711 734C711.077 736.645 710.997 738.266 713 740L712 735C716.174 741.125 720.175 737.562 726 737C723.568 731.273 719.632 728.362 714 726L715 729C713.013 727.914 710.561 726.091 708.147 726.746C706.028 727.322 704.585 730.238 706.623 731.802C711.122 735.257 715.331 726.776 719 733Z" fill="#989997"/>
<path d="M316.5 743.957C323.068 751.352 333.667 756.106 342.5 760.32C371.027 773.93 395.361 775.957 426.5 775.957C427.5 775.957 435.862 775.957 430.5 775.957C435.5 775.957 436.5 775.996 440.5 775.457C448.5 774.996 457.364 773.848 465.5 772.342C472.93 770.967 480.742 768.367 487.5 764.988C494.192 761.642 500.25 757.046 507.5 754.957C495.314 747.25 467 736 465 735.5L458.5 734L450.5 732.432C441.5 730.932 431.698 735.408 413.5 735.828C408.069 735.954 402.7 733.726 397.5 732.432C389.114 730.346 380.163 728.277 371.5 728C361.621 727.685 352.574 731.631 343.5 734.868C334.617 738.036 325.147 740.236 316.5 743.957Z" fill="#989997"/>
<path d="M698 732H705L706 727C702.551 728.025 700.346 729.27 698 732Z" fill="#60605F"/>
<path d="M712 735C712.307 737.123 712.382 737.686 714 739C713.404 737.44 712.911 736.377 712 735Z" fill="#60605F"/>
<path d="M696 736C694.664 741.83 695.736 744.792 702 745L701 738L697 740C696.826 738.315 696.683 737.506 696 736Z" fill="#F4F4F3"/>
<path d="M698 746L699 750H694L695 746C691.097 746.781 693.435 753.61 694 757L696 758L695 759C698.021 761.247 700.25 763.23 704 764C699.269 756.809 696.778 752.625 704 746C701.837 745.324 700.268 745.613 698 746Z" fill="#60605F"/>
<path d="M691 749C690.17 755.166 684.99 765.084 688.032 770.957C691.087 776.856 699.233 778.031 705 776.15C714.628 773.008 724.892 762.205 726 752C723.907 752.406 723.98 752.217 723 754C714.707 750.861 712.388 757.3 716 764C707.903 766.275 700.185 765.989 695.228 757.96C693.449 755.08 692.965 751.754 691 749Z" fill="#F4F4F3"/>
<path d="M704 757V760L703 758C702.301 759.993 703.006 760.153 705 761C704.826 759.315 704.683 758.506 704 757Z" fill="#60605F"/>
<path d="M630.158 210.922L623.842 208L629.316 215.305C639.248 225.363 649.68 234.521 657.804 249.039C666.629 264.807 673.846 283.276 682.011 300.043C685.13 306.448 687.883 313.742 691.632 319.035C689.186 300.493 680.926 285.485 675.632 269.362C695.413 302.209 706.939 338.442 715.211 383.319C716.767 376.699 714.834 369.486 713.839 362.865C711.157 345.012 707.217 329.641 702.579 313.191C711.845 332.103 715.688 357.293 719.986 380.397C722.007 391.264 724.976 402.515 725.316 414H727C726.974 344.875 700.605 284.129 669.737 244.914C657.704 229.628 644.619 217.576 630.158 210.922Z" fill="#383838"/>
</g>
<defs>
<clipPath id="clip0_0_1">
<rect width="765" height="1024" fill="white"/>
</clipPath>
</defs>
</svg>
