<svg width="222" height="466" viewBox="0 0 222 466" fill="none" xmlns="http://www.w3.org/2000/svg">
<path d="M0.0239219 131.673V416.173C0.0239219 416.173 -0.558465 424.396 4.02387 428.173C8.39544 431.777 20.8577 434.043 20.8577 434.043L51.2198 441.051L101.491 451.063L191.084 465.079C201.039 466.081 202.61 458.758 203.054 457.765C203.814 456.069 203.903 454.608 204.091 453.046L204.111 452.877C204.182 450.062 204.182 446.961 204.182 444.077V427.7V377.104V238.756V184.737C204.182 176.381 205.682 166.632 200.779 159.32C199.044 156.731 196.91 154.397 194.218 152.793C189.435 149.942 183.322 149.575 177.934 148.738C167.87 147.175 157.84 145.473 147.798 143.779C143.992 143.137 140.181 142.572 136.375 141.942C135.764 141.841 135.048 141.807 134.342 141.722C133.973 141.677 133.607 141.619 133.261 141.53L128.807 140.74C128.09 140.619 127.374 140.449 126.653 140.314C125.039 140.012 123.409 139.868 121.793 139.597C115.571 138.551 109.322 137.428 103.079 136.447C81.9241 133.123 60.7682 129.797 39.6461 126.248C33.1719 125.161 26.7071 123.998 20.2032 123.071C14.0239 122.19 12.9761 121.327 5.5 122C1.47614 122.362 0.0239219 127.173 0.0239219 131.673Z" fill="#4E4E4B"/>
<path d="M216.488 450.933C216.511 450.914 216.532 450.895 216.554 450.877C216.557 450.874 216.56 450.872 216.563 450.87C216.563 450.87 217.148 450.354 217.5 450C219.315 448.177 221.277 447 221.277 445C221.277 444.713 221.256 443.114 221.256 442.826V430.375C221.256 421.376 221.317 412.387 221.378 403.398C221.439 394.408 221.5 385.419 221.5 376.42V151.275C221.5 135.549 213.904 132.881 203.573 131.5C132.5 122 33.9999 105.5 33.9999 105.5C29.9912 104.5 23.4999 102 18.9999 107C18.9999 107 2.5 123.5 3.00003 123C3.79072 122.209 8.99988 122 8.99988 122C9.07206 121.869 16.4999 122.5 16.4999 122.5L22.4999 123.664C25.2067 124.063 27.5447 124.493 29.9912 124.942C31.2744 125.178 32.5879 125.419 33.9999 125.664L37.3905 126.253C57.5792 129.76 76.0521 132.97 96.4999 136.164C101.062 136.877 106.071 137.775 111.007 138.66C114.074 139.21 117.114 139.755 120 140.247L176.5 149.673C177.503 149.822 178.503 149.985 179.5 150.164C182.045 150.622 183.736 150.896 186.073 151.275C187.517 151.509 189.208 151.782 191.5 152.164C197.286 153.799 198.514 155.96 200.22 158.962C200.429 159.33 200.649 159.717 200.882 160.111C203.551 164.626 203.678 169.444 203.678 174.516V185.746V240.434V377.397V427.201V443.559C203.678 444.385 203.703 445.228 203.729 446.077C203.79 448.098 203.853 450.154 203.573 452.104C203.224 454.55 202.5 457 201.571 458.937C201.407 459.279 201.197 460.212 201 460.5C201 460.5 200 463 199 463.55C201.403 463.06 212.367 454.399 216.136 451.231L216.488 450.933Z" fill="#383735"/>
<path d="M25.5704 150.07C24.0397 150.34 22.5152 150.622 21.1041 151.315C17.2845 153.19 14.8216 157.215 14.231 161.483C13.8648 164.131 14.1566 167.01 14.1566 169.683V184.802V294.221V360.077V374.94C14.1566 379.706 13.9869 384.057 16.5624 388.265C21.1426 395.747 28.6809 396.829 36.4879 398.071C42.9467 399.102 49.4193 400.27 55.8418 401.538C60.6157 402.484 65.4499 403.125 70.2331 404.014C95.0985 408.644 120.037 412.837 144.919 417.377C153.517 418.948 162.144 420.329 170.724 421.99C175.319 422.879 180.674 424.706 185.363 423.712C189.934 422.746 193.229 418.976 194.423 414.402C195.164 411.563 194.792 408.35 194.792 405.434V389.033V316.258C194.792 304.222 194.566 292.16 194.795 280.127C194.954 271.852 194.839 263.54 194.658 255.27C194.524 249.241 194.787 243.117 194.864 237.077C194.968 228.974 194.792 220.841 194.792 212.733V197.358C194.795 195.468 195.147 193.619 195.018 191.72C194.844 189.168 193.758 186.287 192.44 184.141C189.919 180.037 186.423 177.489 181.89 176.318C180.168 175.874 178.408 175.823 176.679 175.481C168.702 173.902 160.638 172.669 152.611 171.364C135.473 168.577 118.377 165.451 101.249 162.528C89.3422 160.496 77.4074 158.664 65.5187 156.532C56.3487 154.887 47.1588 153.48 37.9767 151.89C35.3371 151.433 32.6723 151.091 30.0367 150.637C28.5412 150.38 27 150 25.5704 150.07Z" fill="#272727"/>
<path d="M72.897 140.185C68.7523 141.478 69.3267 147.886 72.898 149.458C74.992 150.38 77.7291 150.488 79.9771 150.835C83.8931 151.44 87.7786 152.189 91.6959 152.793C102.456 154.455 113.149 156.576 123.922 158.134C127.917 158.711 131.869 159.82 135.885 160.277C137.397 160.449 139.132 160.883 140.524 160.043C143.004 158.546 143.127 154.614 141.371 152.5C140.419 151.354 139.001 150.838 137.594 150.499C132.868 149.361 127.982 148.87 123.19 148.063C113.022 146.35 102.815 144.878 92.6724 143.05C88.0518 142.217 83.4061 141.316 78.7564 140.689C76.9881 140.451 74.6475 139.639 72.897 140.185Z" fill="#272727"/>
<path d="M90.1985 411.186C81.1946 412.632 76.6323 421.692 78.3613 430.122C80.2068 439.121 89.0452 447.544 98.7434 446.162C108.057 444.834 112.904 435.464 111.031 426.704C109.112 417.717 99.6831 409.663 90.1985 411.186Z" fill="#272727"/>
<path d="M63 7.73381C62.5 7.23381 61.0212 5.91276 60.0046 4.94548C58.5353 3.54728 57.0832 1.51569 55.184 0.69494C54.2359 0.285174 53.0965 0.179636 52 0.0202906C52 0.0202906 51.1669 -0.0253632 50.6363 0.0202906C50.1359 0.0633508 49.368 0.233808 49.368 0.233808C48.7943 0.38913 48.218 0.529421 47.7863 1.03852C46.7868 2.21721 46.3459 4.17082 45.7944 5.59318C44.4191 9.13981 43.2851 12.685 42.2224 16.3354C41.7468 17.9684 41.1972 19.5776 40.7458 21.2182C40.5817 21.8149 40.4867 22.3786 40.3031 22.9045L39.5689 26.506C39.2604 28.5926 38.2891 30.7463 37.9257 32.6928C36.5949 39.8207 35.1984 46.9535 34.4733 54.1772C33.4824 64.0505 32.5527 74.2675 33.2331 84.2065C33.561 88.9911 34.123 93.7514 34.4755 98.5409C34.6179 100.475 34.5 101.734 34.9204 104.226C34.9204 104.226 35.5 107.435 36 108.734C36.6031 110.3 37.0781 112.347 37.6059 115.212C42.6074 115.254 47.8127 116.573 52.7426 117.39C60.9648 118.752 69.195 119.997 77.4008 121.447C82.1708 122.289 87.0126 122.873 91.8051 123.617C104.845 125.639 117.826 127.978 130.868 130.001C136.146 130.82 141.48 131.468 146.737 132.415C156.473 134.171 166.27 135.591 176.034 137.205C179.696 137.81 183.353 138.429 187.02 138.997C189.039 139.311 191.075 139.828 193.123 139.871C192.76 137.051 192.23 134.126 191.707 131.326C191.539 130.428 191.414 127.908 191.414 127.908C191.414 127.908 191.266 125.969 191.17 124.978C191.036 123.592 190.816 122.216 190.682 120.828C190.074 114.563 189.461 108.37 189.461 102.029C189.461 84.9743 191.693 68.1291 195.157 51.4916C196.527 44.9264 198.582 38.2721 200.772 31.9604C201.737 29.1862 203 26.0873 203.622 23.4154C204.243 20.7436 199.553 21.9591 197.276 22.4865C195 23.0139 192.716 23.9848 190.438 24.6574C186.756 25.7446 183.023 26.6906 179.41 27.9675C177.718 28.5651 175.5 29.2338 174.325 29.7194C173.149 30.205 173.037 30.5256 172.127 30.4955C171.189 30.4644 171 30.2338 169.93 29.519L169 28.7338C167 26.7338 167.638 27.3869 166.263 26.0873C163.705 23.6674 161.007 21.2785 158.59 18.7236C157.396 17.4631 155.799 15.5099 154.046 15.101C151.734 14.5617 149.547 14.3849 147.225 14.9609C146.424 15.1593 145 15.7338 143.5 16.2338C142 16.7338 138.868 17.537 136.239 18.3097C131.942 19.5724 127.528 21.4801 123.097 22.1779C121.849 22.3747 121.771 22.5094 121 22.2338C120.375 22.0105 120.272 21.7338 119.637 21.2182C115.435 17.8056 111.938 13.6669 107.849 10.1515C106.948 9.37663 106.079 8.60783 104.988 8.11101C104.985 8.10984 104.983 8.10867 104.98 8.1075C104.98 8.1075 103.202 7.39119 102 7.23381C100.744 7.06946 98.7585 7.3371 98.7585 7.3371C98.1222 7.34855 97.4985 7.38239 96.9321 7.51799C96.0292 7.7343 94 8.23381 93 8.73381C92.8489 8.80938 90.5383 9.45939 88.8754 9.89567C85.0895 10.8886 81.3849 12.151 77.645 13.2997C75.7914 13.8688 73.7624 14.8249 71.7856 14.5812C69.1242 14.2531 67.3381 11.6874 65.4509 10.0441C64.5737 9.28044 63.5 8.23381 63 7.73381Z" fill="#ECEEED"/>
<path d="M86.3064 40.8784C83.7807 41.4917 83.1196 44.8101 85.3818 46.2617C86.5244 46.9949 88.1733 46.9463 89.4802 47.1277C92.0027 47.4783 94.5222 47.9641 97.0486 48.2786C116.64 50.7175 136.062 54.6236 155.642 57.1746C160.767 57.8421 165.916 58.6521 171.023 59.4871C172.925 59.7981 175.642 60.7026 177.344 59.3877C179.129 58.0078 178.43 55.0391 176.392 54.3318C173.87 53.4583 170.952 53.5247 168.338 53.1487C165.244 52.7041 162.163 52.0542 159.06 51.5947C141.98 49.0654 124.885 46.3479 107.791 43.8179C102.575 43.0457 97.3943 42.1245 92.1657 41.4365C90.2876 41.1895 88.2126 40.4158 86.3064 40.8784Z" fill="#CCCDCC"/>
<path d="M86.188 94.9198C83.6797 95.6632 84.2991 99.0663 86.1697 100.167C87.2864 100.824 88.8223 100.827 90.0723 101.028C92.5972 101.435 95.1008 101.964 97.6406 102.28C107.679 103.529 117.654 105.446 127.67 106.921C133.456 107.774 139.223 108.714 145.004 109.606C148.324 110.119 151.715 110.39 155.014 111.006C160.524 112.037 166.1 112.681 171.615 113.674C173.495 114.012 176.505 115.018 178.18 113.698C180.434 111.922 178.671 109.021 176.498 108.354C174.569 107.762 172.394 107.704 170.395 107.41C166.723 106.869 163.065 106.279 159.408 105.666C142.45 102.822 125.346 100.792 108.383 97.9349C103.113 97.0472 97.8198 96.119 92.5137 95.4754C90.5867 95.2418 88.1011 94.3526 86.188 94.9198ZM41 102.838C41.3047 103.005 41.3782 103.02 41.7324 103.082C41.4277 102.914 41.3545 102.899 41 102.838Z" fill="#CCCDCC"/>
<path d="M58.4917 60.995C57.248 61.4767 56.6296 62.7553 56.4043 63.988C55.9504 66.4687 56.0466 69.0448 56.0466 71.5561C56.0466 72.7387 55.7934 74.2253 56.4675 75.2658C58.1828 77.9135 62.8249 77.5055 65.5681 77.9821C66.7153 78.1813 67.8171 78.5209 68.986 78.6151C70.1521 78.7094 71.5266 79.089 72.6479 78.6339C74.0525 78.0636 74.4511 76.8368 74.6953 75.4623C75.154 72.8788 75.0896 70.2626 75.0896 67.6498C75.0896 66.6032 75.3623 65.0985 74.7773 64.1735C73.9421 62.8524 72.3227 62.6869 70.9392 62.4445C68.2558 61.974 65.5747 61.4792 62.8825 61.0385C61.5705 60.8236 59.7724 60.4987 58.4917 60.995Z" fill="#CCCDCC"/>
<path d="M60.4461 32.8169C56.9105 33.492 57.1622 38.0086 56.7039 40.7591C56.5401 41.742 56.3262 42.6978 56.1912 43.6888C56.0103 45.0184 55.7542 46.8101 56.5194 48.003C57.3902 49.3606 59.252 49.4117 60.6893 49.586C62.6195 49.8204 64.6466 50.0623 66.5487 50.4429C68.3463 50.8028 70.5858 51.3653 72.408 50.897C73.6302 50.5831 74.3294 49.7283 74.7215 48.5716C75.6011 45.9769 75.6099 42.9634 76.0506 40.2708C76.2879 38.8206 76.5899 37.2398 75.7364 35.9212C74.7784 34.4412 73.0238 34.2996 71.4315 34.149C69.0779 33.9263 66.7008 33.4031 64.3514 33.0872C63.0943 32.918 61.7074 32.5762 60.4461 32.8169Z" fill="#CCCDCC"/>
<path d="M86.0083 70.0192C83.7949 70.8295 83.6726 74.2299 85.7737 75.2946C87.0064 75.9193 88.7998 75.962 90.1577 76.1864C93.0691 76.6679 96.0203 77.1884 98.9468 77.5619C117.775 79.9652 136.593 83.0648 155.343 86.0763C160.629 86.9254 165.902 87.8002 171.212 88.4437C172.992 88.6593 175.646 89.8102 177.292 88.681C179.489 87.1723 178.617 83.944 176.339 83.1674C174.855 82.6613 173.234 82.6486 171.701 82.4074C167.96 81.8187 164.213 81.1742 160.47 80.6347C142.985 78.1151 125.443 75.6417 107.98 72.809C103.023 72.005 98.0366 71.3815 93.0874 70.5712C90.9819 70.2264 88.0918 69.2562 86.0083 70.0192ZM56.7359 87.537C55.439 87.941 55.0366 89.3634 55.0051 90.5712C54.947 92.7887 55.3948 94.973 55.6641 97.163C55.843 98.6207 55.7439 99.9664 56.4776 101.31C57.7779 103.691 60.1797 103.747 62.5698 104.069C64.6055 104.344 66.648 104.685 68.6734 105.037C70.0908 105.283 71.8528 105.829 73.2671 105.292C74.5593 104.802 75.0166 103.558 75.0191 102.29C75.0215 101.12 74.6902 100.026 74.5745 98.872C74.3213 96.3515 74.5691 92.7934 73.0496 90.6232C72.2295 89.4518 70.491 89.0224 69.1616 88.8305C66.3086 88.4191 63.4824 87.9079 60.6167 87.601C59.3814 87.4686 57.9588 87.1559 56.7359 87.537Z" fill="#CCCDCC"/>
<rect x="60.3378" y="232" width="11" height="34.5817" rx="5.5" transform="rotate(0.559679 60.3378 232)" fill="white"/>
<path d="M65.4253 242.754C62.429 242.255 60.4044 239.422 60.9033 236.425C61.4021 233.429 64.2356 231.404 67.2319 231.903L91.2574 235.904C94.2537 236.402 96.2783 239.236 95.7794 242.232C95.2805 245.228 92.4471 247.253 89.4508 246.754L65.4253 242.754Z" fill="white"/>
<rect x="147.21" y="242.243" width="11" height="36.6723" rx="5.5" transform="rotate(99.8009 147.21 242.243)" fill="white"/>
<path d="M135.374 247.498C135.462 244.461 137.994 242.071 141.031 242.159C144.067 242.247 146.457 244.78 146.369 247.817L145.655 272.442C145.567 275.478 143.034 277.868 139.998 277.78C136.961 277.692 134.571 275.159 134.659 272.123L135.374 247.498Z" fill="white"/>
<rect x="146.128" y="335.355" width="11" height="35.8602" rx="5.5" transform="rotate(178.993 146.128 335.355)" fill="white"/>
<path d="M141.523 324.762C144.502 325.357 146.435 328.254 145.84 331.233C145.245 334.212 142.348 336.144 139.369 335.549L115.485 330.78C112.506 330.185 110.573 327.288 111.168 324.31C111.763 321.331 114.66 319.398 117.639 319.993L141.523 324.762Z" fill="white"/>
<path d="M64.5146 322.678C61.5193 322.172 59.501 319.335 60.0065 316.339C60.512 313.344 63.3499 311.326 66.3451 311.831L91.6594 316.104C94.6546 316.609 96.6729 319.447 96.1674 322.442C95.6619 325.437 92.8241 327.456 89.8289 326.95L64.5146 322.678Z" fill="white"/>
<path d="M70.287 317.051C70.3068 320.089 67.8604 322.567 64.8229 322.587C61.7854 322.607 59.307 320.16 59.2872 317.123L59.127 292.487C59.1073 289.45 61.5536 286.972 64.5911 286.952C67.6286 286.932 70.107 289.378 70.1268 292.416L70.287 317.051Z" fill="white"/>
</svg>
